<?xml version="1.0" encoding="UTF-8"?>
<svg width="400px" height="400px" viewBox="0 0 400 400" version="1.1" xmlns="http://www.w3.org/2000/svg" xmlns:xlink="http://www.w3.org/1999/xlink">
    <!-- Generator: Sketch 50 (54983) - http://www.bohemiancoding.com/sketch -->
    <title>print</title>
    <desc>Created with Sketch.</desc>
    <defs></defs>
    <g id="print" stroke="none" stroke-width="1" fill="none" fill-rule="evenodd">
        <g id="Layer_2" transform="translate(50.000000, 20.000000)">
            <g id="Group" fill-rule="nonzero">
                <polygon id="Shape" fill="#EAEAEA" points="213.387851 0.0728180964 86.6740486 0.0728180964 63.844815 68.6414585 236.22222 68.6414585"></polygon>
                <path d="M272.487061,76.7346698 L27.579974,76.7346698 C12.6350058,76.7775256 0.530231174,89.0363388 0.487913879,104.171488 L0.487913879,201.955789 C0.493560465,204.303199 2.371196,206.204728 4.68910917,206.210447 L295.383062,206.210447 C297.700975,206.204728 299.578611,204.303199 299.584258,201.955789 L299.584258,104.171488 C299.541927,89.0343155 287.434035,76.7746698 272.487061,76.7346698 L272.487061,76.7346698 Z M274.39763,165.838013 C274.400474,169.036902 271.845152,171.63405 268.686469,171.642656 L32.3820737,171.642656 C29.2354028,171.631244 26.6873177,169.050733 26.6760493,165.86402 L26.6760493,141.563581 C26.6873177,138.376867 29.2354028,135.796356 32.3820737,135.784945 L268.686469,135.784945 C271.83314,135.796356 274.381225,138.376867 274.392494,141.563581 L274.39763,165.838013 Z" id="Shape" fill="#EAEAEA"></path>
                <rect id="Rectangle-path" fill="#FFFFFF" x="227.711975" y="103.916625" width="44.9753878" height="16.9354087" rx="7.32"></rect>
            </g>
            <rect id="Rectangle-path" fill="#FFFFFF" fill-rule="nonzero" x="26.6760493" y="103.916625" width="16.7226062" height="16.9354087" rx="7.32"></rect>
            <rect id="Rectangle-path" fill="#FFFFFF" fill-rule="nonzero" x="47.3995493" y="103.916625" width="16.7226062" height="16.9354087" rx="7.32"></rect>
            <rect id="Rectangle-path" fill="#FFFFFF" fill-rule="nonzero" x="68.1179134" y="103.916625" width="16.7226062" height="16.9354087" rx="7.32"></rect>
            <g id="Group" transform="translate(41.087485, 147.196581)">
                <path d="M236.494425,166.441363 L236.494425,46.2915042 L236.494425,46.2915042 C236.494425,46.2915042 237.490797,25.1066394 212.869121,23.5670568 L212.869121,23.4734335 L50.6660044,23.4734335 L50.6660044,23.5670568 C26.064873,25.1274446 27.0407008,46.2915042 27.0407008,46.2915042 L27.0407008,46.2915042 L27.0407008,166.441363 C27.0407008,197.877976 23.0243991,212.243946 23.0243991,212.243946 C23.0243991,212.243946 75.8680402,207.266309 97.3824743,206.58494 C103.519917,206.38729 116.436795,206.330076 131.762427,206.340479 C147.088059,206.350881 160.010073,206.38729 166.14238,206.58494 C187.667086,207.255906 240.515863,212.212738 240.515863,212.212738 C240.515863,212.212738 236.494425,197.867573 236.494425,166.441363 Z" id="Shape" fill="#000000" fill-rule="nonzero" opacity="0.1"></path>
                <path d="M213.65492,143.311215 L213.65492,23.161356 L213.65492,23.161356 C213.65492,23.161356 214.651291,1.97649119 190.029616,0.436908579 L190.029616,0.343285312 L27.8367708,0.343285312 L27.8367708,0.436908579 C3.23563941,1.99729636 4.21146716,23.161356 4.21146716,23.161356 L4.21146716,23.161356 L4.21146716,143.311215 C4.21146716,174.747828 0.195165552,189.113798 0.195165552,189.113798 C0.195165552,189.113798 41.6370296,184.125758 63.1720075,183.44959 C69.3094505,183.251941 93.6435132,183.194727 108.969145,183.205129 C124.294777,183.215532 148.633975,183.251941 154.766282,183.44959 C176.275581,184.136161 217.707173,189.108596 217.707173,189.108596 C217.707173,189.108596 213.65492,174.763431 213.65492,143.311215 Z" id="Shape" fill="#FFFFFF" fill-rule="nonzero"></path>
                <polygon id="_5_v6" stroke="#666666" stroke-width="5.11399984" stroke-linecap="round" points="105.296951 164.386853 104.192725 164.360846 103.083363 164.33484 101.979137 164.308833 100.87491 164.277626 99.7706843 164.246418 98.6664582 164.21521 97.562232 164.178801 96.4580059 164.142392 95.3486438 164.100782 94.2444176 164.05397 93.1453274 164.001957 92.0359654 163.944743 90.9522829 163.887529 89.8634646 163.819912 88.7746463 163.752295 87.6858279 163.674276 86.5970096 163.596256 85.5133272 163.513036 84.4245088 163.424614 83.3356905 163.336192 82.2520081 163.242568 81.1683257 163.143744 80.0384199 163.039718 78.908514 162.930491 77.7837442 162.816062 76.6538383 162.701634 75.5290684 162.576803 74.4042986 162.451972 73.2795287 162.32194 72.1547588 162.181505 71.0351248 162.035868 69.9103549 161.885031 68.790721 161.728992 67.6659511 161.562551 66.5052297 161.385707 65.3445082 161.19846 64.1786508 161.000811 63.0179294 160.797961 61.8623439 160.589909 60.7016225 160.371455 59.546037 160.147799 58.3904515 159.918942 57.2400019 159.679683 56.0844164 159.435222 54.9339668 159.18556 53.8246047 158.941099 52.7152427 158.691437 51.6110165 158.431373 50.5016544 158.176509 49.3974283 157.911243 48.2880662 157.651179 47.18384 157.385913 46.0796139 157.115446 46.3569544 155.945155 46.6342949 154.769663 46.9167714 153.594171 47.1941119 152.418678 47.4765884 151.248388 47.7642008 150.072895 48.0518132 148.902605 48.3394256 147.727112 48.6321739 146.556822 48.9249222 145.386531 49.2279424 144.21624 49.5309626 143.045949 49.8391187 141.88086 50.1472749 140.71577 50.4657029 139.555882 50.7841309 138.395994 51.1076948 137.230904 51.4363947 136.071016 51.7650946 134.911128 52.0989304 133.751239 52.4327662 132.591351 52.7717379 131.431463 53.1107097 130.271575 53.4496814 129.116888 53.7937891 127.956999 54.1378968 126.797111 54.4820045 125.642424 54.8312481 124.482536 55.1753558 123.322648 55.5245994 122.167961 55.8687071 121.008072 56.2128148 119.848184 56.5620584 118.693497 56.9061661 117.533609 57.2502738 116.373721 57.5892455 115.219034 57.9333532 114.059145 58.267189 112.899257 58.6061608 111.739369 58.9399966 110.579481 59.2686964 109.419592 59.5973963 108.259704 59.9209603 107.099816 60.2445242 105.934726 60.5629522 104.774838 60.8711083 103.609749 61.1844004 102.44986 61.4874206 101.284771 61.7853049 100.119681 62.0831891 98.9545918 62.3708015 97.7843009 62.653278 96.6192114 62.9306185 95.4541218 63.2028231 94.283831 63.4647558 93.1135402 63.7215526 91.9432493 63.9732134 90.7729585 64.2197383 89.5974664 64.4559914 88.4219742 64.6819725 87.2464821 64.9028178 86.07099 65.1133911 84.8954979 65.3188285 83.7148044 65.5139941 82.534111 65.6988878 81.3534176 65.8735096 80.1727242 66.0378595 78.9868295 66.1970735 77.8009347 66.3408797 76.61504 66.47955 75.4291453 66.6028124 74.2380493 66.715803 73.0469533 66.8185217 71.850656 66.9109686 70.65956 66.9931435 69.4632627 67.0650466 68.2617641 67.1318138 67.0654668 67.1883091 65.8639682 67.2396684 64.6624696 67.2807559 63.460971 67.3218434 62.2594724 67.352659 61.0527726 67.3834746 59.851274 67.4091543 58.6445741 67.434834 57.4378742 67.4502418 56.2363756 67.4707855 55.0296757 67.4913293 53.8229758 68.4979727 53.7085474 69.4994801 53.5629112 70.4907157 53.3548595 71.4562715 53.0635871 72.4937305 52.6110747 73.4695583 52.0233286 74.3529392 51.3159528 75.1130577 50.483746 75.6985543 49.6151301 76.1607885 48.6684949 76.520304 47.6646454 76.7925086 46.6243869 76.9876741 45.5685245 77.1314803 44.4294414 77.2136553 43.2955596 77.2444709 42.1564765 77.234199 41.0225948 77.1982475 39.888713 77.1417522 38.8484544 77.074985 37.8029946 76.9876741 36.7627361 76.8849554 35.7224776 76.7719648 34.6822191 76.6435665 33.6419606 76.5048962 32.601702 76.3354103 31.4470151 76.1607885 30.2923281 75.9707589 29.1376412 75.7704574 27.9881555 75.5701559 26.8386698 75.3647185 25.6891842 75.1541451 24.5396985 90.870108 19.9209507 91.1628563 20.8987937 91.4658765 21.8714354 91.7894404 22.8440771 92.1386841 23.8063162 92.5341511 24.7841593 92.9758416 25.7411971 93.4637554 26.6774298 94.0133005 27.5668508 94.6244769 28.4146615 95.3075563 29.2000567 96.1190341 29.9646467 97.007551 30.6512173 97.962835 31.2545672 98.9643424 31.7694952 100.001801 32.2012025 100.962221 32.5132801 101.938049 32.7577408 102.929285 32.9449873 103.925656 33.080221 104.927164 33.1686429 105.738641 33.2154546 106.555255 33.2466623 107.366733 33.2726688 108.183347 33.2778701 108.999961 33.2674675 109.811438 33.2518636 110.818082 33.1894481 111.819589 33.0854222 112.810825 32.9345848 113.796924 32.7213318 114.767616 32.440462 115.820483 32.0451637 116.837398 31.5614435 117.802954 30.9893013 118.717151 30.3339385 119.554308 29.5901536 120.257931 28.8307649 120.894787 28.0037594 121.475148 27.1299422 121.993878 26.2145147 122.466384 25.2678795 122.88753 24.3056403 123.26759 23.3538038 123.621969 22.3915647 123.955805 21.4293255 124.279369 20.4670864 139.84639 25.5851583 139.599865 26.7294427 139.35334 27.8737271 139.117087 29.0128101 138.88597 30.1570945 138.659988 31.3065802 138.444279 32.4508645 138.238842 33.6055515 138.06422 34.6354074 137.905006 35.6704647 137.7612 36.7055219 137.627665 37.7457804 137.504403 38.7808376 137.401684 39.8210962 137.314373 40.8613547 137.24247 41.9952365 137.196247 43.1291183 137.196247 44.2682013 137.24247 45.4072844 137.345189 46.5515688 137.509539 47.6126325 137.745792 48.6580923 138.074492 49.6723444 138.511046 50.6293822 139.060591 51.5188032 139.79503 52.3718152 140.657867 53.1156001 141.613151 53.7345539 142.635203 54.2182741 143.595623 54.5407542 144.576586 54.7748124 145.572958 54.9568576 146.579601 55.1024938 146.559057 56.3091937 146.538514 57.5158936 146.523106 58.7225935 146.507698 59.9240921 146.49229 61.130792 146.482018 62.3374918 146.482018 63.5389904 146.482018 64.7456903 146.487154 65.9471889 146.497426 67.1486875 146.51797 68.3501861 146.54365 69.5516847 146.579601 70.747982 146.625824 71.9494806 146.677184 73.1457779 146.743951 74.3420752 146.82099 75.5383725 146.908301 76.7294685 147.005884 77.9257658 147.113738 79.1168618 147.231865 80.3027565 147.360263 81.4938525 147.498934 82.6797472 147.647876 83.8656419 147.80709 85.0515366 147.97144 86.2374313 148.146061 87.4233261 148.330955 88.6040195 148.520985 89.7847129 148.71615 90.9654063 148.926724 92.1460997 149.137297 93.3267932 149.358142 94.5074866 149.584123 95.6829787 149.820376 96.8584708 150.061765 98.0391643 150.30829 99.2146564 150.559951 100.384947 150.816748 101.560439 151.078681 102.735931 151.345749 103.911424 151.617954 105.081714 151.895294 106.252005 152.172635 107.427497 152.460247 108.597788 152.74786 109.768079 153.035472 110.93837 153.333356 112.108661 153.626105 113.278952 153.929125 114.449242 154.227009 115.619533 154.530029 116.789824 154.838185 117.954914 155.146342 119.125204 155.454498 120.295495 155.762654 121.465786 156.07081 122.630876 156.378966 123.801167 156.687122 124.971457 157.000414 126.136547 157.30857 127.306838 157.616727 128.477129 157.924883 129.642218 158.227903 130.812509 158.536059 131.9828 158.839079 133.153091 159.136964 134.323381 159.434848 135.493672 159.732732 136.663963 160.02548 137.834254 160.313093 139.004545 160.600705 140.174836 160.883182 141.345126 161.165658 142.515417 161.437863 143.690909 161.710067 144.8612 161.977136 146.041894 162.239069 147.222587 162.495865 148.403281 162.752662 149.583974 163.004323 150.764667 163.255984 151.945361 163.502509 153.126054 163.743898 154.311949 163.990423 155.492642 164.231812 156.673336 164.473201 157.85923 164.71459 159.039924 163.600092 159.268781 162.485594 159.497638 161.371096 159.726495 160.261733 159.955351 159.147235 160.179007 158.027601 160.397461 156.913103 160.610714 155.798605 160.823967 154.637884 161.03722 153.477163 161.240071 152.316441 161.43772 151.15572 161.635369 149.994998 161.822615 148.829141 161.999459 147.663283 162.171102 146.497426 162.337543 145.331569 162.493582 144.165711 162.64442 142.994718 162.784855 141.869948 162.914887 140.745178 163.034517 139.620408 163.148945 138.490503 163.258172 137.360597 163.356997 136.235827 163.455821 135.105921 163.544243 133.976015 163.627464 132.846109 163.710685 131.716204 163.783503 130.586298 163.856321 129.456392 163.923938 128.367574 163.986353 127.278755 164.048769 126.189937 164.100782 125.101119 164.157996 124.0123 164.204807 122.918346 164.246418 121.829528 164.288028 120.740709 164.319236 119.651891 164.350444 118.563073 164.37645 117.458846 164.397255 116.35462 164.412859 115.245258 164.423262 114.141032 164.428463 113.036806 164.433664 111.93258 164.428463 110.823218 164.428463 109.718992 164.423262 108.614765 164.412859 107.505403 164.407658 106.401177 164.397255"></polygon>
            </g>
        </g>
    </g>
</svg>