<?xml version="1.0" encoding="UTF-8"?>
<svg width="227px" height="227px" viewBox="0 0 227 227" version="1.1" xmlns="http://www.w3.org/2000/svg" xmlns:xlink="http://www.w3.org/1999/xlink">
    <!-- Generator: Sketch 49.2 (51160) - http://www.bohemiancoding.com/sketch -->
    <title>print</title>
    <desc>Created with Sketch.</desc>
    <defs></defs>
    <g id="Products" stroke="none" stroke-width="1" fill="none" fill-rule="evenodd">
        <g id="01A_dress-page" transform="translate(-529.000000, -1470.000000)" fill-rule="nonzero">
            <g id="Print-template" transform="translate(318.000000, 1470.000000)">
                <g id="print" transform="translate(211.000000, 0.000000)">
                    <circle id="Oval" fill="#EA427F" cx="113.2" cy="113.2" r="113.2"></circle>
                    <g id="Layer_4" transform="translate(38.000000, 34.000000)" fill="#FFFFFF">
                        <g id="Group">
                            <g opacity="0.5" transform="translate(0.000000, 34.000000)" id="Shape">
                                <path d="M30.8,1.9 L30.8,0.5 L14.9,0.5 C7.63585771,0.337605891 1.50103737,5.8589442 0.9,13.1 L19.6,13.1 C22.5651218,13.1053091 25.4109084,11.9325082 27.5113169,9.8396012 C29.6117254,7.74669419 30.7947004,4.90512182 30.8,1.94 C30.8,1.94 30.8,1.91 30.8,1.9 Z"></path>
                            </g>
                            <g opacity="0.5" transform="translate(119.000000, 34.000000)" id="Shape">
                                <path d="M16.6,0.5 L0.7,0.5 L0.7,1.9 C0.694690923,4.8651218 1.86749179,7.71090844 3.9603988,9.81131691 C6.05330581,11.9117254 8.89487818,13.0947004 11.86,13.1 L30.5,13.1 C29.9786643,5.86013538 23.8561292,0.310211454 16.6,0.5 L16.6,0.5 Z"></path>
                            </g>
                            <g opacity="0.5" transform="translate(31.000000, 16.000000)" id="Rectangle-path">
                                <rect x="0.5" y="0.6" width="88.2" height="17.9"></rect>
                            </g>
                            <path d="M119.7,35.9 L119.7,34.5 L30.8,34.5 L30.8,35.9 C30.8053091,38.8651218 29.6325082,41.7109084 27.5396012,43.8113169 C25.4466942,45.9117254 22.6051218,47.0947004 19.64,47.1 L130.9,47.1 C124.725788,47.0726195 119.727381,42.0742123 119.7,35.9 L119.7,35.9 Z" id="Shape"></path>
                            <path d="M12.7,74.3 L12.7,47.1 L0.9,47.1 C0.783269135,48.0993801 0.816976853,49.1106117 1,50.1 L4.6,80.2 L12.8,80.2 L12.8,74.3 L12.7,74.3 Z" id="Shape"></path>
                            <path d="M149.5,47.1 L137.7,47.1 L137.7,80.2 L145.9,80.2 L149.5,50.1 C149.600251,49.1025126 149.600251,48.0974874 149.5,47.1 L149.5,47.1 Z" id="Shape"></path>
                            <path d="M137.8,74.3 L137.8,47.1 L12.7,47.1 L12.7,74.2 L137.8,74.3 Z M122.2,51.2 L130.3,51.2 C132.012083,51.2 133.4,52.5879173 133.4,54.3 C133.4,56.0120827 132.012083,57.4 130.3,57.4 L122.2,57.4 C120.492457,57.3890889 119.110911,56.0075428 119.1,54.3 C119.073032,53.5042298 119.363516,52.7303802 119.907464,52.1489184 C120.451413,51.5674566 121.2042,51.2260841 122,51.2 L122.2,51.2 Z M122.2,59.1 L130.3,59.1 C132.012083,59.1 133.4,60.4879173 133.4,62.2 C133.4,63.9120827 132.012083,65.3 130.3,65.3 L122.2,65.3 C120.492457,65.2890889 119.110911,63.9075428 119.1,62.2 C119.073032,61.4042298 119.363516,60.6303802 119.907464,60.0489184 C120.451413,59.4674566 121.2042,59.1260841 122,59.1 L122.2,59.1 Z" id="Shape" opacity="0.5"></path>
                            <rect id="Rectangle-path" x="12.7" y="80.2" width="125.1" height="1"></rect>
                            <rect id="Rectangle-path" x="12.7" y="79.9" width="125.1" height="1"></rect>
                            <rect id="Rectangle-path" x="12.7" y="74.3" width="125.1" height="5.6"></rect>
                            <path d="M122.2,57.5 L130.3,57.5 C132.012083,57.5 133.4,56.1120827 133.4,54.4 C133.4,52.6879173 132.012083,51.3 130.3,51.3 L122.2,51.3 C120.492457,51.3109111 119.110911,52.6924572 119.1,54.4 C119.073032,55.1957702 119.363516,55.9696198 119.907464,56.5510816 C120.451413,57.1325434 121.2042,57.4739159 122,57.5 L122.2,57.5 Z M122.3,52 C123.570255,52 124.6,53.0297451 124.6,54.3 C124.6,55.5702549 123.570255,56.6 122.3,56.6 C121.029745,56.6 120,55.5702549 120,54.3 C120.016166,53.0365019 121.036502,52.0161661 122.3,52 L122.3,52 Z" id="Shape"></path>
                            <circle id="Oval" opacity="0.5" cx="122.3" cy="54.3" r="2.3"></circle>
                            <path d="M122.2,65.3 L130.3,65.3 C132.012083,65.2999999 133.4,63.9120827 133.4,62.2 C133.4,60.4879173 132.012083,59.1000001 130.3,59.1 L122.2,59.1 C120.492457,59.1109111 119.110911,60.4924572 119.1,62.2 C119.073032,62.9957702 119.363516,63.7696198 119.907464,64.3510816 C120.451413,64.9325434 121.2042,65.2739159 122,65.3 L122.2,65.3 Z M130.1,59.9 C131.370255,59.9 132.4,60.9297451 132.4,62.2 C132.4,63.4702549 131.370255,64.5 130.1,64.5 C128.829745,64.5 127.8,63.4702549 127.8,62.2 C127.851023,60.9514898 128.85149,59.9510226 130.1,59.9 L130.1,59.9 Z" id="Shape"></path>
                            <circle id="Oval" opacity="0.5" cx="130.1" cy="62.2" r="2.3"></circle>
                            <path d="M89,101.5 C83,97.8 83.3,92.5 84.6,87.2 C84.4,87.1 84.1,87.1 83.8,87 C82.9,86.7 81.7,86.4 80.9,86.2 L80.9,86.4 C80.3,88.9 79.1,93.9 74.1,93.9 C69.1,93.9 67.9,88.9 67.3,86.3 L67.3,86.1 C66.5,86.3 65.3,86.7 64.4,86.9 L63.6,87.1 C64.9,92.4 65.2,97.7 59.2,101.4 C59.8,105.3 57.8,113 55.6,121.2 C54,127.3 52.3,133.6 51.9,138 C61.1,138.7 67.6,139 74.1,139.1 C80.6,139.2 87.1,138.7 96.3,138 C95.9,133.6 94.2,127.3 92.6,121.2 C90.5,113.1 88.4,105.3 89,101.5 Z" id="Shape"></path>
                            <path d="M125,78.5 C125.3,68 119.7,67.7 119.7,67.7 L31.5,67.7 C31.5,67.7 26.7,67.7 26.7,78.5 C26.7,89.3 24.4,157.5 24.4,157.5 L126.9,157.5 C126.9,157.5 124.6,89.1 125,78.5 Z M97.2,140.7 C87.6,141.4 80.9,141.8 74.2,141.8 L74.2,141.8 C67.4,141.8 60.8,141.4 51.2,140.7 L49.1,140.5 L49.2,138.4 C49.5,133.7 51.3,127 53.1,120.5 C55.1,113.1 57.3,104.6 56.6,101.6 L56.2,100.1 L57.5,99.3 C61.7,96.8 62.6,93.7 60.9,87.2 L60.4,85.2 L63.7,84.3 C65.3,83.8 66.8,83.4 67.3,83.3 L69.3,82.8 L69.8,84.8 C69.9,85 69.9,85.3 70,85.5 C70.9,89.2 71.8,91.1 74.2,91.1 C76.6,91.1 77.5,89.1 78.4,85.6 C78.5,85.3 78.5,85 78.6,84.8 L79.1,82.8 L81.1,83.3 C81.6,83.4 83,83.8 84.7,84.3 C85.3,84.5 85.8,84.6 86,84.7 L88,85.3 L87.5,87.3 C85.8,93.7 86.7,96.9 90.9,99.4 L92.2,100.2 L91.8,101.7 C91.1,104.7 93.3,113.2 95.3,120.6 C97,127.1 98.8,133.9 99.2,138.5 L99.3,140.6 L97.2,140.7 Z" id="Shape"></path>
                            <rect id="Rectangle-path" x="39" y="0.9" width="72.6" height="15.7"></rect>
                        </g>
                    </g>
                </g>
            </g>
        </g>
    </g>
</svg>