<?xml version="1.0" encoding="UTF-8"?>
<svg width="227px" height="227px" viewBox="0 0 227 227" version="1.1" xmlns="http://www.w3.org/2000/svg" xmlns:xlink="http://www.w3.org/1999/xlink">
    <!-- Generator: Sketch 49.2 (51160) - http://www.bohemiancoding.com/sketch -->
    <title>print template</title>
    <desc>Created with Sketch.</desc>
    <defs></defs>
    <g id="Products" stroke="none" stroke-width="1" fill="none" fill-rule="evenodd">
        <g id="03_shirt-page" transform="translate(-529.000000, -1463.000000)" fill-rule="nonzero">
            <g id="Print-template" transform="translate(302.000000, 1463.000000)">
                <g id="print-template" transform="translate(227.000000, 0.000000)">
                    <circle id="Oval" fill="#1DDBB1" cx="113.2" cy="113.2" r="113.2"></circle>
                    <g id="Group" opacity="0.5" transform="translate(38.000000, 68.000000)" fill="#FFFFFF">
                        <path d="M30.8,1.9 L30.8,0.5 L14.9,0.5 C7.63585771,0.337605891 1.50103737,5.8589442 0.9,13.1000179 L19.6,13.1 C22.5651218,13.1053091 25.4109084,11.9325082 27.5113169,9.8396012 C29.6117254,7.74669419 30.7947004,4.90512182 30.8,1.94 C30.8,1.94 30.8,1.91 30.8,1.9 Z" id="Shape"></path>
                    </g>
                    <g id="Group" opacity="0.5" transform="translate(157.000000, 68.000000)" fill="#FFFFFF">
                        <path d="M16.6,0.5 L0.7,0.5 L0.7,1.9 C0.694690923,4.8651218 1.86749179,7.71090844 3.9603988,9.81131691 C6.05330581,11.9117254 8.89487818,13.0947004 11.86,13.1 L30.5,13.1 C29.9786643,5.86013538 23.8561292,0.310211454 16.6,0.5 Z" id="Shape"></path>
                    </g>
                    <g id="Group" opacity="0.5" transform="translate(69.000000, 50.000000)" fill="#FFFFFF">
                        <rect id="Rectangle-path" x="0.5" y="0.6" width="88.2" height="17.9"></rect>
                    </g>
                    <path d="M157.7,69.9 L157.7,68.5 L68.8,68.5 L68.8,69.9 C68.8053091,72.8651218 67.6325082,75.7109084 65.5396012,77.8113169 C63.4466942,79.9117254 60.6051218,81.0947004 57.64,81.1 L168.9,81.1 C162.725788,81.0726195 157.727381,76.0742123 157.7,69.9 Z" id="Shape" fill="#FFFFFF"></path>
                    <path d="M50.7,108.3 L50.7,81.1 L38.9,81.1 C38.7832691,82.0993801 38.8169769,83.1106117 39,84.1 L42.6,114.2 L50.8,114.2 L50.8,108.3 L50.7,108.3 Z" id="Shape" fill="#FFFFFF"></path>
                    <path d="M187.5,81.1 L175.7,81.1 L175.7,114.2 L183.9,114.2 L187.5,84.1 C187.600251,83.1025126 187.600251,82.0974874 187.5,81.1 Z" id="Shape" fill="#FFFFFF"></path>
                    <path d="M175.8,108.3 L175.8,81.1 L50.7,81.1 L50.7,108.2 L175.8,108.3 Z M160.2,85.2 L168.3,85.2 C170.012083,85.2 171.4,86.5879173 171.4,88.3 C171.4,90.0120827 170.012083,91.4 168.3,91.4 L160.2,91.4 C158.492457,91.3890889 157.110911,90.0075428 157.1,88.3 C157.073032,87.5042298 157.363516,86.7303802 157.907464,86.1489184 C158.451413,85.5674566 159.2042,85.2260841 160,85.2 L160.2,85.2 Z M160.2,93.1 L168.3,93.1 C170.012083,93.1 171.4,94.4879173 171.4,96.2 C171.4,97.9120827 170.012083,99.3 168.3,99.3 L160.2,99.3 C158.492457,99.2890889 157.110911,97.9075428 157.1,96.2 C157.073032,95.4042298 157.363516,94.6303802 157.907464,94.0489184 C158.451413,93.4674566 159.2042,93.1260841 160,93.1 L160.2,93.1 Z" id="Shape" fill="#FFFFFF" opacity="0.5"></path>
                    <rect id="Rectangle-path" fill="#FFFFFF" x="50.7" y="114.2" width="125.1" height="1"></rect>
                    <rect id="Rectangle-path" fill="#FFFFFF" x="50.7" y="113.9" width="125.1" height="1"></rect>
                    <rect id="Rectangle-path" fill="#FFFFFF" x="50.7" y="108.3" width="125.1" height="5.6"></rect>
                    <path d="M160.2,91.5 L168.3,91.5 C170.012083,91.5 171.4,90.1120827 171.4,88.4 C171.4,86.6879173 170.012083,85.3 168.3,85.3 L160.2,85.3 C158.492457,85.3109111 157.110911,86.6924572 157.1,88.4 C157.073032,89.1957702 157.363516,89.9696198 157.907464,90.5510816 C158.451413,91.1325434 159.2042,91.4739159 160,91.5 L160.2,91.5 Z M160.3,86 C161.570255,86 162.6,87.0297451 162.6,88.3 C162.6,89.5702549 161.570255,90.6 160.3,90.6 C159.029745,90.6 158,89.5702549 158,88.3 C158.016166,87.0365019 159.036502,86.0161661 160.3,86 Z" id="Shape" fill="#FFFFFF"></path>
                    <circle id="Oval" fill="#FFFFFF" opacity="0.5" cx="160.3" cy="88.3" r="2.3"></circle>
                    <path d="M160.2,99.3 L168.3,99.3 C170.012083,99.2999999 171.4,97.9120827 171.4,96.2 C171.4,94.4879173 170.012083,93.1000001 168.3,93.1 L160.2,93.1 C158.492457,93.1109111 157.110911,94.4924572 157.1,96.2 C157.073032,96.9957702 157.363516,97.7696198 157.907464,98.3510816 C158.451413,98.9325434 159.2042,99.2739159 160,99.3 L160.2,99.3 Z M168.1,93.9 C169.370255,93.9 170.4,94.9297451 170.4,96.2 C170.4,97.4702549 169.370255,98.5 168.1,98.5 C166.829745,98.5 165.8,97.4702549 165.8,96.2 C165.851023,94.9514898 166.85149,93.9510226 168.1,93.9 Z" id="Shape" fill="#FFFFFF"></path>
                    <circle id="Oval" fill="#FFFFFF" opacity="0.5" cx="168.1" cy="96.2" r="2.3"></circle>
                    <path d="M163,112.5 C163.3,102 157.7,101.7 157.7,101.7 L69.5,101.7 C69.5,101.7 64.7,101.7 64.7,112.5 C64.7,123.3 62.4,191.5 62.4,191.5 L164.9,191.5 C164.9,191.5 162.6,123.1 163,112.5 Z M130.24,170.65 L97.46,170.65 L97.46,143.37 L91.84,144.07 L91.43,142.94 C91.26,142.58 88.43,137.25 86.71,134 L85.9,132.46 L107.9,124.69 L108.57,125.48 C108.718414,125.669637 108.901702,125.829165 109.11,125.95 C109.380725,126.030526 109.658741,126.08412 109.94,126.11 C110.48,126.11 111.12,126.18 111.83,126.2 L114.96,126.2 C115.88,126.2 116.77,126.2 117.6,126.12 C117.915423,126.11301 118.228374,126.062534 118.53,125.97 C118.766575,125.902289 118.971854,125.753638 119.11,125.55 L119.77,124.63 L141.6,132.35 L141.09,133.77 C141.09,133.89 140.95,134.15 136.2,143.11 L135.72,144.02 L130.27,143.34 L130.24,170.65 Z M100.47,167.65 L127.24,167.65 L127.24,140 L134.01,140.84 C135.19,138.62 136.66,135.84 137.54,134.16 L120.71,128.16 C120.332803,128.453509 119.906057,128.677042 119.45,128.82 C118.886895,129.000926 118.30118,129.101912 117.71,129.12 C116.84,129.12 115.93,129.18 114.96,129.2 L111.75,129.2 C110.97,129.2 110.27,129.15 109.64,129.1 C109.095974,129.05038 108.559263,128.939683 108.04,128.77 L107.92,128.77 C107.597571,128.626181 107.295069,128.441318 107.02,128.22 L90.19,134.22 C92.19,137.99 93.19,139.91 93.71,140.91 L100.46,140.07 L100.47,167.65 Z" id="Shape" fill="#FFFFFF"></path>
                    <rect id="Rectangle-path" fill="#FFFFFF" x="77" y="34.9" width="72.6" height="15.7"></rect>
                </g>
            </g>
        </g>
    </g>
</svg>